<svg viewBox="0 0 200 200" xmlns="http://www.w3.org/2000/svg">
  <!-- Background -->
  <rect width="200" height="200" fill="#F5DEB3"/>
  
  <!-- Cup -->
  <ellipse cx="100" cy="170" rx="45" ry="8" fill="#8B4513" opacity="0.3"/>
  <rect x="70" y="80" width="60" height="80" rx="8" fill="#8B4513" stroke="#6B3410" stroke-width="2"/>
  
  <!-- Matcha -->
  <rect x="75" y="85" width="50" height="70" rx="5" fill="#7CB342"/>
  
  <!-- Foam -->
  <ellipse cx="100" cy="85" rx="25" ry="8" fill="#C8E6C9"/>
  
  <!-- Matcha Powder Effect -->
  <circle cx="90" cy="90" r="2" fill="#4CAF50" opacity="0.7"/>
  <circle cx="110" cy="95" r="1.5" fill="#4CAF50" opacity="0.7"/>
  <circle cx="100" cy="88" r="1" fill="#4CAF50" opacity="0.7"/>
  
  <!-- Bubbles -->
  <circle cx="85" cy="120" r="8" fill="#6B3410"/>
  <circle cx="105" cy="130" r="6" fill="#6B3410"/>
  <circle cx="95" cy="140" r="7" fill="#6B3410"/>
  <circle cx="115" cy="145" r="5" fill="#6B3410"/>
  <circle cx="90" cy="150" r="6" fill="#6B3410"/>
  
  <!-- Bamboo Straw -->
  <rect x="115" y="60" width="4" height="70" fill="#8BC34A" transform="rotate(15 117 95)"/>
  <line x1="115" y1="70" x2="119" y2="70" stroke="#689F38" stroke-width="1" transform="rotate(15 117 95)"/>
  <line x1="115" y1="85" x2="119" y2="85" stroke="#689F38" stroke-width="1" transform="rotate(15 117 95)"/>
  
  <!-- Japanese Symbol -->
  <text x="50" y="50" font-family="serif" font-size="20" fill="#4CAF50">抹</text>
</svg>