<svg viewBox="0 0 200 200" xmlns="http://www.w3.org/2000/svg">
  <!-- Background -->
  <rect width="200" height="200" fill="#F5DEB3"/>
  
  <!-- Cup -->
  <ellipse cx="100" cy="170" rx="45" ry="8" fill="#8B4513" opacity="0.3"/>
  <rect x="70" y="80" width="60" height="80" rx="8" fill="#8B4513" stroke="#6B3410" stroke-width="2"/>
  
  <!-- Strawberry Drink -->
  <rect x="75" y="95" width="50" height="60" rx="5" fill="#FF69B4"/>
  
  <!-- Cream Layer -->
  <rect x="75" y="85" width="50" height="15" rx="5" fill="#FFFACD"/>
  
  <!-- Strawberry Pieces -->
  <ellipse cx="90" cy="105" rx="4" ry="6" fill="#DC143C"/>
  <ellipse cx="110" cy="110" rx="3" ry="5" fill="#DC143C"/>
  <ellipse cx="100" cy="120" rx="5" ry="4" fill="#DC143C"/>
  <ellipse cx="85" cy="125" rx="3" ry="4" fill="#DC143C"/>
  
  <!-- Seeds on Strawberry Pieces -->
  <circle cx="90" cy="105" r="0.5" fill="#FFFF00"/>
  <circle cx="110" cy="110" r="0.5" fill="#FFFF00"/>
  <circle cx="100" cy="120" r="0.5" fill="#FFFF00"/>
  
  <!-- Bubbles -->
  <circle cx="85" cy="135" r="8" fill="#6B3410"/>
  <circle cx="105" cy="125" r="6" fill="#6B3410"/>
  <circle cx="95" cy="145" r="7" fill="#6B3410"/>
  <circle cx="115" cy="140" r="5" fill="#6B3410"/>
  <circle cx="90" cy="150" r="6" fill="#6B3410"/>
  
  <!-- Pink Straw -->
  <rect x="115" y="60" width="4" height="70" fill="#FF1493" transform="rotate(15 117 95)"/>
  
  <!-- Whipped Cream Top -->
  <ellipse cx="100" cy="85" rx="22" ry="10" fill="#FFFFFF"/>
  <circle cx="88" cy="82" r="3" fill="#FFF0F5"/>
  <circle cx="112" cy="87" r="2" fill="#FFF0F5"/>
  <circle cx="100" cy="80" r="2" fill="#FFF0F5"/>
  
  <!-- Fresh Strawberry on Side -->
  <ellipse cx="50" cy="50" rx="6" ry="10" fill="#DC143C"/>
  <ellipse cx="50" cy="45" rx="3" ry="2" fill="#32CD32"/>
  <circle cx="48" cy="48" r="0.5" fill="#FFFF00"/>
  <circle cx="52" cy="52" r="0.5" fill="#FFFF00"/>
  
  <ellipse cx="150" cy="60" rx="5" ry="8" fill="#DC143C"/>
  <ellipse cx="150" cy="56" rx="2" ry="2" fill="#32CD32"/>
</svg>