<svg viewBox="0 0 200 200" xmlns="http://www.w3.org/2000/svg">
  <!-- Background -->
  <rect width="200" height="200" fill="#F5DEB3"/>
  
  <!-- Cup -->
  <ellipse cx="100" cy="170" rx="45" ry="8" fill="#8B4513" opacity="0.3"/>
  <rect x="70" y="80" width="60" height="80" rx="8" fill="#8B4513" stroke="#6B3410" stroke-width="2"/>
  
  <!-- Generic Drink -->
  <rect x="75" y="85" width="50" height="70" rx="5" fill="#DEB887"/>
  
  <!-- Bubbles -->
  <circle cx="85" cy="120" r="8" fill="#6B3410"/>
  <circle cx="105" cy="130" r="6" fill="#6B3410"/>
  <circle cx="95" cy="140" r="7" fill="#6B3410"/>
  <circle cx="115" cy="145" r="5" fill="#6B3410"/>
  <circle cx="90" cy="150" r="6" fill="#6B3410"/>
  
  <!-- Straw -->
  <rect x="115" y="60" width="4" height="70" fill="#FF6B6B" transform="rotate(15 117 95)"/>
  
  <!-- Steam -->
  <path d="M90 70 Q85 60 90 50 Q95 40 90 30" stroke="#DEB887" stroke-width="2" fill="none" opacity="0.7"/>
  <path d="M110 70 Q105 60 110 50 Q115 40 110 30" stroke="#DEB887" stroke-width="2" fill="none" opacity="0.7"/>
  
  <!-- Question Mark -->
  <text x="100" y="35" text-anchor="middle" font-family="Arial" font-size="24" fill="#8B4513">?</text>
</svg>